<svg aria-hidden="true" style="position: absolute; width: 0; height: 0; overflow: hidden;" version="1.1" xmlns="http://www.w3.org/2000/svg" xmlns:xlink="http://www.w3.org/1999/xlink">
<defs>
<symbol id="arrow" viewBox="0 0 43 32">
<path d="M5.808 16.011l11.89-11.89c0.44-0.432 0.713-1.033 0.713-1.698s-0.273-1.266-0.713-1.698l-0-0c-0.432-0.44-1.033-0.713-1.698-0.713s-1.266 0.273-1.698 0.713l-13.589 13.589c-0.44 0.432-0.713 1.033-0.713 1.698s0.273 1.266 0.713 1.698l13.589 13.589c0.432 0.44 1.033 0.713 1.698 0.713s1.266-0.273 1.698-0.713l0-0c0.44-0.432 0.713-1.033 0.713-1.698s-0.273-1.266-0.713-1.698l-11.891-11.891z"></path>
<path d="M42.676 13.609v4.804h-40.264v-4.804h40.264zM5.808 16.011l11.89-11.89c0.44-0.432 0.713-1.033 0.713-1.698s-0.273-1.266-0.713-1.698l-0-0c-0.432-0.44-1.033-0.713-1.698-0.713s-1.266 0.273-1.698 0.713l-13.589 13.589c-0.44 0.432-0.713 1.033-0.713 1.698s0.273 1.266 0.713 1.698l13.589 13.589c0.432 0.44 1.033 0.713 1.698 0.713s1.266-0.273 1.698-0.713l0-0c0.44-0.432 0.713-1.033 0.713-1.698s-0.273-1.266-0.713-1.698l-11.891-11.891z"></path>
</symbol>
<symbol id="facebook" viewBox="0 0 19 32">
<path d="M18.002 0.238c-1.351-0.151-2.916-0.238-4.502-0.238-0.044 0-0.088 0-0.131 0l0.007-0c-5.124 0-8.308 3.264-8.308 8.518v3.565h-4.306c-0 0-0.001 0-0.001 0-0.42 0-0.761 0.341-0.761 0.761 0 0.001 0 0.002 0 0.002v-0 5.866c0 0 0 0 0 0 0 0.42 0.341 0.761 0.761 0.761 0 0 0.001 0 0.001 0h4.304v11.764c0 0 0 0 0 0 0 0.42 0.341 0.761 0.761 0.761 0 0 0.001 0 0.001 0h6.061c0 0 0 0 0 0 0.421 0 0.762-0.341 0.762-0.761v-11.764h4.29c0.001 0 0.002 0 0.003 0 0.385 0 0.704-0.287 0.753-0.659l0-0.004 0.757-5.866c0.004-0.030 0.007-0.065 0.007-0.101 0-0.306-0.182-0.57-0.443-0.69l-0.005-0.002c-0.092-0.043-0.2-0.068-0.314-0.069h-5.048v-2.983c0-1.479 0.297-2.096 2.145-2.096h3.106c0 0 0.001 0 0.001 0 0.421 0 0.762-0.341 0.762-0.761v-5.25c-0-0.386-0.287-0.705-0.659-0.756l-0.004-0zM17.141 5.48l-2.346 0.001c-3.287 0-3.668 2.066-3.668 3.619v3.748c0.001 0.42 0.341 0.761 0.761 0.762h4.945l-0.561 4.343h-4.383c-0 0-0.001 0-0.001 0-0.42 0-0.761 0.341-0.761 0.761 0 0 0 0 0 0v0 11.76h-4.537v-11.76c0-0 0-0.001 0-0.001 0-0.42-0.341-0.761-0.761-0.761-0 0-0.001 0-0.001 0h-4.304v-4.343h4.304c0 0 0.001 0 0.001 0 0.42 0 0.761-0.341 0.761-0.761 0 0 0 0 0 0v0-4.331c0-4.378 2.537-6.994 6.785-6.994 1.537 0 2.926 0.085 3.767 0.158v3.799z"></path>
</symbol>
<symbol id="instagram" viewBox="0 0 32 32">
<path d="M16 8.49c-4.147 0-7.509 3.362-7.509 7.509s3.362 7.509 7.509 7.509v0c4.147 0 7.509-3.362 7.509-7.509s-3.362-7.509-7.509-7.509v0zM16 21.551c-3.066 0-5.551-2.485-5.551-5.551s2.485-5.551 5.551-5.551c3.066 0 5.551 2.485 5.551 5.551v0c-0.010 3.062-2.489 5.541-5.55 5.551h-0.001zM23.184 0h-14.367c-0 0-0.001 0-0.001 0-4.868 0-8.815 3.947-8.815 8.815 0 0 0 0.001 0 0.001v-0 14.367c0 0 0 0.001 0 0.001 0 4.868 3.947 8.815 8.815 8.815 0 0 0.001 0 0.001 0h14.367c0.001 0 0.002 0 0.003 0 4.868 0 8.814-3.946 8.814-8.814 0-0.001 0-0.002 0-0.003v0-14.367c0-0 0-0.001 0-0.001 0-4.868-3.947-8.815-8.815-8.815-0 0-0.001 0-0.001 0h0zM30.041 23.184c-0.001 3.787-3.070 6.856-6.857 6.857h-14.367c-3.787-0.001-6.856-3.070-6.857-6.857v-14.367c0.001-3.787 3.070-6.856 6.857-6.857h14.367c3.787 0.001 6.856 3.070 6.857 6.857v14.367zM26.122 7.51c0 0.902-0.732 1.634-1.634 1.634s-1.634-0.732-1.634-1.634v0c0-0.902 0.732-1.634 1.634-1.634s1.634 0.732 1.634 1.634v0z"></path>
</symbol>
<symbol id="telephone" viewBox="0 0 28 32">
<path d="M26.363 23.36l-0.182-0.229c-1.449-1.831-2.661-2.785-3.7-2.91-0.898-0.124-1.767 0.499-2.691 1.138l-0.988 0.617c-0.097 0.051-0.211 0.098-0.329 0.135l-0.015 0.004c-0.578 0.163-2.035 0.259-2.86-0.496-0.961-0.878-2.45-2.486-3.609-3.892-1.108-1.454-2.324-3.269-2.96-4.411-0.537-0.967-0.088-2.32 0.212-2.822 0.059-0.098 0.137-0.195 0.222-0.291l0.871-0.804c0.013-0.013 0.018-0.029 0.030-0.040 0.008-0.007 0.022-0.005 0.032-0.012 0.787-0.663 1.599-1.347 1.711-2.224 0.13-1.031-0.51-2.425-1.962-4.257l-0.177-0.227c-0.898-1.151-2.257-2.894-4.209-2.607-0.768 0.114-1.453 0.376-2.161 0.82-0.006 0.004-0.011 0.013-0.016 0.017-0.006 0.004-0.014 0.004-0.019 0.008l-0.984 0.729c-0.011 0.006-0.016 0.019-0.025 0.027-0.007 0.007-0.018 0.008-0.026 0.016-0.114 0.095-0.228 0.194-0.341 0.296-0.998 0.888-3.16 3.474-1.686 8.252 0.953 3.087 2.915 6.689 5.691 10.439l-0.026 0.022 1.532 1.906 0.011-0.009c3.010 3.559 6.073 6.312 8.881 7.979 1.873 1.112 3.509 1.48 4.855 1.48 1.772 0 3.041-0.637 3.677-1.051l0.401-0.267c0.044-0.032 0.076-0.074 0.109-0.114l0.871-0.657c0.011-0.007 0.016-0.019 0.025-0.027 0.004-0.004 0.012-0.003 0.017-0.007 0.62-0.566 1.050-1.159 1.348-1.861 0.773-1.802-0.611-3.528-1.526-4.668zM26.855 27.585c-0.232 0.547-0.57 1.012-1.061 1.463l-1.297 0.976c-1.175 0.763-3.686 1.707-7.333-0.459-2.806-1.666-5.896-4.483-8.936-8.146l-0.824-1.039c-2.862-3.797-4.877-7.433-5.827-10.515-1.236-4.006 0.321-6.155 1.363-7.083 0.106-0.096 0.211-0.185 0.317-0.274l0.003-0.004 0.945-0.7c0.489-0.327 1.070-0.559 1.695-0.656l0.024-0.003c1.309-0.196 2.373 1.183 3.155 2.186l0.183 0.232c1.622 2.046 1.779 3.019 1.728 3.416-0.056 0.441-0.727 1.007-1.318 1.503l-0.082 0.071-0.007 0.009c-0.004 0.003-0.009 0.004-0.013 0.007l-0.9 0.832c-0.006 0.005-0.008 0.013-0.015 0.019-0.005 0.007-0.017 0.011-0.022 0.018-0.128 0.141-0.246 0.296-0.348 0.461l-0.008 0.013c-0.507 0.846-0.982 2.595-0.23 3.949 0.658 1.183 1.91 3.051 3.061 4.561 1.202 1.46 2.736 3.116 3.731 4.024 0.745 0.679 1.781 0.908 2.679 0.908 0.481 0 0.921-0.067 1.255-0.162 0.176-0.050 0.357-0.124 0.545-0.215 0.011-0.005 0.017-0.015 0.027-0.021 0.006-0.004 0.015-0.002 0.020-0.006l1.046-0.654c0.034-0.022 0.055-0.052 0.084-0.080l0.013 0.014c0.643-0.446 1.376-0.97 1.836-0.894 0.408 0.049 1.331 0.44 2.956 2.493l0.187 0.236c0.792 0.986 1.876 2.338 1.37 3.52z"></path>
</symbol>
</defs>
</svg>
